<svg width="48" height="48" viewBox="0 0 48 48" fill="none" xmlns="http://www.w3.org/2000/svg">
<path d="M24 0C37.2548 0 47.9999 10.7452 47.9999 24C47.9999 37.2548 37.2548 48 24 48C10.7452 48 0 37.2548 0 24C0 10.7452 10.7452 0 24 0Z" fill="#F1F1F2"/>
<path d="M42.756 17.0437C43.5599 19.2102 43.9999 21.5538 43.9999 24.0002C43.9999 26.4466 43.5599 28.7899 42.756 30.9567L24 32.6958L5.24398 30.9567C4.44008 28.7899 4 26.4466 4 24.0002C4 21.5538 4.44008 19.2102 5.24398 17.0437L24 15.3045L42.756 17.0437Z" fill="white"/>
<path d="M24 3.99994C32.5992 3.99994 39.9301 9.42744 42.7559 17.0435H5.2439C8.06983 9.42744 15.4006 3.99994 24 3.99994Z" fill="#D80027"/>
<path d="M24 44C15.4006 44 8.06983 38.5725 5.2439 30.9565H42.756C39.9301 38.5725 32.5992 44 24 44Z" fill="#D80027"/>
</svg>
