<svg width="16" height="16" viewBox="0 0 16 16" fill="none" xmlns="http://www.w3.org/2000/svg">
<path fill-rule="evenodd" clip-rule="evenodd" d="M10.1391 0.163479C10.0344 0.0588052 9.89242 0 9.74438 0C9.59635 0 9.45439 0.0588051 9.34971 0.163479L1.16348 8.34971C1.05881 8.45439 1 8.59635 1 8.74438V11.7212C1 12.0295 1.24989 12.2793 1.55815 12.2793H4.53496C4.683 12.2793 4.82496 12.2205 4.92964 12.1159L13.1159 3.92964C13.3338 3.71167 13.3338 3.35826 13.1159 3.14029L10.1391 0.163479ZM2.1163 11.163V8.97558L9.74438 1.3475L11.9319 3.53496L4.30377 11.163H2.1163ZM14.9538 14.8837H1.55815C1.24989 14.8837 1 15.1336 1 15.4418C1 15.7501 1.24989 16 1.55815 16H14.9538C15.2621 16 15.512 15.7501 15.512 15.4418C15.512 15.1336 15.2621 14.8837 14.9538 14.8837Z" fill="#76787B"/>
</svg>
