<svg width="12" height="12" viewBox="0 0 12 12" fill="none" xmlns="http://www.w3.org/2000/svg">
<path fill-rule="evenodd" clip-rule="evenodd" d="M0.461538 2.42308H11.5385C11.6609 2.42308 11.7783 2.37445 11.8648 2.2879C11.9514 2.20134 12 2.08395 12 1.96154C12 1.83913 11.9514 1.72174 11.8648 1.63518C11.7783 1.54863 11.6609 1.5 11.5385 1.5H0.461538C0.339131 1.5 0.221737 1.54863 0.135182 1.63518C0.0486263 1.72174 0 1.83913 0 1.96154C0 2.08395 0.0486263 2.20134 0.135182 2.2879C0.221737 2.37445 0.339131 2.42308 0.461538 2.42308ZM11.5385 5.19231H0.461538C0.339131 5.19231 0.221737 5.24093 0.135182 5.32749C0.0486263 5.41404 0 5.53144 0 5.65385C0 5.77625 0.0486263 5.89365 0.135182 5.9802C0.221737 6.06676 0.339131 6.11538 0.461538 6.11538H11.5385C11.6609 6.11538 11.7783 6.06676 11.8648 5.9802C11.9514 5.89365 12 5.77625 12 5.65385C12 5.53144 11.9514 5.41404 11.8648 5.32749C11.7783 5.24093 11.6609 5.19231 11.5385 5.19231ZM0.461538 8.88461H11.5385C11.6609 8.88461 11.7783 8.93324 11.8648 9.01979C11.9514 9.10635 12 9.22374 12 9.34615C12 9.46856 11.9514 9.58595 11.8648 9.67251C11.7783 9.75906 11.6609 9.80769 11.5385 9.80769H0.461538C0.339131 9.80769 0.221737 9.75906 0.135182 9.67251C0.0486263 9.58595 0 9.46856 0 9.34615C0 9.22374 0.0486263 9.10635 0.135182 9.01979C0.221737 8.93324 0.339131 8.88461 0.461538 8.88461Z" fill="#76787B"/>
</svg>
